<?xml version="1.0" encoding="iso-8859-1"?>
<!-- Generator: Adobe Illustrator 16.0.0, SVG Export Plug-In . SVG Version: 6.00 Build 0)  -->
<!DOCTYPE svg PUBLIC "-//W3C//DTD SVG 1.1//EN" "http://www.w3.org/Graphics/SVG/1.1/DTD/svg11.dtd">
<svg version="1.1" id="Capa_1" xmlns="http://www.w3.org/2000/svg" xmlns:xlink="http://www.w3.org/1999/xlink" x="0px" y="0px"
	 width="426.006px" height="426.006px" viewBox="0 0 426.006 426.006" style="enable-background:new 0 0 426.006 426.006;"
	 xml:space="preserve">
<g>
	<path d="M324.438,390.042l-31.24-138.715l89.229,34.109v38.418h-29.251c-0.247,1.679-0.371,3.376-0.371,5.077
		c0,19.317,15.72,35.03,35.037,35.03c19.312,0,35.031-15.713,35.031-35.03c0-1.701-0.124-3.398-0.371-5.077H393.25v-34.282
		l12.335,4.716l13.814-37.187l-35.197-39.503L148.499,127.5l5.948-103.122L104.625,5.358L12.293,249.48l20.412,7.793v38.069H12.293
		v68.488h20.388v-35.826h13.04v35.826h20.387v-68.488h-20.41v-33.109l15.95,6.089l64.095-81.006l84.266,32.211v170.515H0v30.605
		h426.006v-30.605H324.438L324.438,390.042z M235.997,390.042v-160.56l-0.063-0.045l28.114,10.747l33.755,149.857H235.997z"/>
</g>
<g>
</g>
<g>
</g>
<g>
</g>
<g>
</g>
<g>
</g>
<g>
</g>
<g>
</g>
<g>
</g>
<g>
</g>
<g>
</g>
<g>
</g>
<g>
</g>
<g>
</g>
<g>
</g>
<g>
</g>
</svg>
